<svg id="圖層_3" data-name="圖層 3" xmlns="http://www.w3.org/2000/svg" viewBox="0 0 56.3 56.3"><defs><style>.cls-1{fill:#fff;}</style></defs><title>up-logo-export</title><path class="cls-1" d="M28.15,56.3A28.15,28.15,0,1,1,56.3,28.15,28.18,28.18,0,0,1,28.15,56.3Zm0-54.84A26.69,26.69,0,1,0,54.84,28.15,26.72,26.72,0,0,0,28.15,1.46Z"/><path class="cls-1" d="M28.15,4A24.16,24.16,0,1,0,52.31,28.15,24.16,24.16,0,0,0,28.15,4ZM23,42.09l-8.91-3.87-1.94-8.37L18.42,15.4l2.68,1.17-5.9,13.56,1.39,6,4.87,2.12L23,34.66l2.68,1.17Zm19.7-12.26C40,36,33.39,37.5,25,33.84l-1.34-.58,6.73-15.46,3.13,1.34a7.46,7.46,0,0,1,4.19,3.58,5.59,5.59,0,0,1-.12,4.65,5.76,5.76,0,0,1-5.35,3.58L32.33,28a2.82,2.82,0,0,0,2.54-1.82A2.75,2.75,0,0,0,35,23.93a4.64,4.64,0,0,0-2.52-2l-.12,0-.5-.22L27.5,31.71c8.32,3.13,11.39-.5,12.5-3,1.85-4.26-.66-8-1.39-9l-9.78-4.25L20.4,34.85l-2.68-1.17L27.32,11.6l13.09,5.69.22.24C40.83,17.76,45.55,23.24,42.69,29.83Z"/></svg>