<?xml version="1.0" encoding="UTF-8"?>
<svg width="340px" height="340px" viewBox="0 0 340 340" version="1.1" xmlns="http://www.w3.org/2000/svg" xmlns:xlink="http://www.w3.org/1999/xlink">
    <!-- Generator: Sketch 47.1 (45422) - http://www.bohemiancoding.com/sketch -->
    <title>s-coin</title>
    <desc>Created with Sketch.</desc>
    <defs></defs>
    <g id="Page-1" stroke="none" stroke-width="1" fill="none" fill-rule="evenodd">
        <g id="Desktop-HD" transform="translate(-1058.000000, -2228.000000)">
            <g id="s-coin" transform="translate(1061.000000, 2231.000000)">
                <circle id="Oval-2" stroke="#7872B2" stroke-width="6" cx="167" cy="167" r="167"></circle>
                <path d="M166,319 C81.5004333,319 13,250.499567 13,166 C13,81.5004333 81.5004333,13 166,13 C250.499567,13 319,81.5004333 319,166 C319,250.499567 250.499567,319 166,319 Z M254.5,61 C246.5,50.3333333 236.333333,44.1666667 224,42.5 C205.5,40 182.5,44.5 171,49.5 C136.884203,64.3329554 101.5,97 101,115.5 C100.5,134 107.5,144 128.5,151 C148.385331,157.628444 178.296297,159.427249 206.5,169.5 C220.5,174.5 233.5,180.5 239,191.5 C242.666667,198.833333 244.5,206.833333 244.5,215.5 C257.833333,189.833333 260.666667,169.5 253,154.5 C247.974413,144.667329 232.155908,134.77291 212.5,126.5 C187.177495,115.842095 157.5,110 157.5,91.5 C157.5,64.5 190,52.5 206.5,49.5 C213.610661,48.2071525 224.710702,48.4177716 236,52 C240.116627,53.3062546 246.283293,56.3062546 254.5,61 Z M93.5,111.5 C80.1666667,130.5 74.1666667,146.666667 75.5,160 C77.5,180 91.5,194.5 112,201.5 C132.5,208.5 158.5,217.5 167,226.5 C175.5,235.5 174.5,251 167,260.5 C159.5,270 145.036989,281.5 121,281.5 C111.5,281.5 100.28966,280.381154 93.5,278 C87.7513519,275.983932 81.7513519,271.150598 75.5,263.5 C75.5,276.833333 84.6666667,286.166667 103,291.5 C130.5,299.5 156.5,290.5 186,271.5 C215.5,252.5 234.5,232 234.5,212 C234.5,192 199.5,179 186,175.5 C172.5,172 148.5,167.5 132.5,164 C116.5,160.5 102,151 96.5,143 C92.8333333,137.666667 91.8333333,127.166667 93.5,111.5 Z" id="Combined-Shape" fill="#7872B2"></path>
            </g>
        </g>
    </g>
</svg>