<svg xmlns="http://www.w3.org/2000/svg" viewBox="0 0 239.91 50.21"><defs><style>.cls-1{fill:#7872b2;}.cls-2{fill:#48307f;}.cls-3{fill:#282927;}</style></defs><title>sag-logo</title><g id="圖層_1" data-name="圖層 1"><path class="cls-1" d="M60.25,31.12a9.53,9.53,0,1,0-.11,19.06Z"/><path class="cls-2" d="M0,49.85S.42,4,47.28,0L47,50.12Z"/><path class="cls-1" d="M50.93,0s30.59,1.11,30.44,27.8l-30.6-.17Z"/><path class="cls-2" d="M63.69,31.14l-.11,19.07s16.82-.54,17.78-19Z"/><rect class="cls-3" x="87.36" y="16.73" width="25.19" height="2.06" transform="translate(81.63 117.62) rotate(-89.68)"/><rect class="cls-3" x="102.13" y="22.65" width="9.85" height="2.06" transform="translate(82.77 130.6) rotate(-89.68)"/><rect class="cls-3" x="109.65" y="22.68" width="9.91" height="2.04" transform="translate(90.26 138.17) rotate(-89.68)"/><rect class="cls-3" x="99.51" y="6.74" width="0.97" height="9.26" transform="translate(88.06 111.3) rotate(-89.68)"/><rect class="cls-3" x="101.19" y="14.6" width="1.13" height="4.11" transform="translate(84.53 118.32) rotate(-89.68)"/><rect class="cls-3" x="99.53" y="2.52" width="0.97" height="9.26" transform="translate(92.3 107.13) rotate(-89.68)"/><rect class="cls-3" x="110.48" y="2.36" width="0.87" height="9.6" transform="translate(103.13 118.04) rotate(-89.68)"/><rect class="cls-3" x="109.97" y="14.79" width="0.97" height="8.82" transform="translate(90.63 129.55) rotate(-89.68)"/><rect class="cls-3" x="110.19" y="22.91" width="0.97" height="9.35" transform="translate(82.47 138.1) rotate(-89.68)"/><rect class="cls-3" x="112.71" y="9.19" width="4.56" height="1.4" transform="translate(104.45 124.82) rotate(-89.68)"/><path class="cls-3" d="M115.6,14.25s.1,2.82-2.23,2.65l-.49,0s.1-1.49-1.89-2.2c0,0,0-.36.42-.26l1.65.57a1.49,1.49,0,0,0,.83-.56l1.19-.76Z"/><path class="cls-3" d="M96.06,23.6s.18,5.81,3.32,6.35L116.7,30a1.53,1.53,0,0,0-.3,1.9l-15.87-.08s-3.91-.14-4.72-4.76A11.5,11.5,0,0,1,96.06,23.6Z"/><path class="cls-3" d="M114.27,12.17l1.41-.05s.21,3.3-.73,4.21l-1.07-1.86A4.76,4.76,0,0,0,114.27,12.17Z"/><path class="cls-3" d="M95.34,15.72h2.17l-.79,1.88s.71,11.68-2.93,14.26C93.79,31.87,96.16,25.86,95.34,15.72Z"/><path class="cls-3" d="M108.55,7.45h2.19s-.24,9.21-5.41,9.86C105.34,17.3,108.65,15.32,108.55,7.45Z"/><path class="cls-3" d="M122.29,11.89,125,12a14.4,14.4,0,0,0,2.71-6h-2.53S125,11.28,122.29,11.89Z"/><rect class="cls-3" x="114.88" y="22.43" width="17.14" height="2.06" transform="translate(99.29 146.77) rotate(-89.68)"/><rect class="cls-3" x="122.26" y="22.47" width="17.14" height="2.06" transform="translate(106.6 154.2) rotate(-89.68)"/><rect class="cls-3" x="127" y="22.45" width="16.66" height="2.06" transform="translate(111.09 158.68) rotate(-89.68)"/><rect class="cls-3" x="132.13" y="8.18" width="6.58" height="2.06" transform="translate(125.44 144.57) rotate(-89.68)"/><rect class="cls-3" x="126.68" y="16.06" width="0.97" height="6.83" transform="translate(106.97 146.53) rotate(-89.68)"/><rect class="cls-3" x="126.21" y="11.97" width="0.97" height="6.83" transform="translate(110.6 142) rotate(-89.68)"/><rect class="cls-3" x="126.65" y="21.25" width="0.97" height="6.83" transform="translate(101.75 151.66) rotate(-89.68)"/><rect class="cls-3" x="126.34" y="7.86" width="0.97" height="9.07" transform="translate(113.71 139.15) rotate(-89.68)"/><rect class="cls-3" x="138.41" y="7.94" width="0.97" height="9.06" transform="translate(125.65 151.29) rotate(-89.68)"/><rect class="cls-3" x="138.43" y="26.98" width="0.97" height="9.3" transform="translate(106.49 170.36) rotate(-89.68)"/><path class="cls-3" d="M128.5,7.79s2.46,3.44,2.09,5.3c0,0,.2,1.07.91-.15,0,0,1.55-1.83.34-2.91Z"/><path class="cls-3" d="M140.7,6.07H143s-1.44,5.18-5.4,5.58C137.61,11.66,141.05,9.36,140.7,6.07Z"/><path class="cls-3" d="M141.14,15.81l2.19.24s-1.3,11-5.93,12.49A14.89,14.89,0,0,0,139.66,24,30.91,30.91,0,0,0,141.14,15.81Z"/><rect class="cls-3" x="147.68" y="19.31" width="23.83" height="2.01" transform="translate(138.38 179.8) rotate(-89.68)"/><rect class="cls-3" x="147.34" y="13" width="10.25" height="2.01" transform="translate(137.6 166.4) rotate(-89.68)"/><rect class="cls-3" x="158.86" y="0.71" width="0.97" height="15.69" transform="translate(149.88 167.85) rotate(-89.68)"/><rect class="cls-3" x="158.84" y="3.66" width="0.97" height="15.69" transform="translate(146.92 170.76) rotate(-89.68)"/><rect class="cls-3" x="158.82" y="6.61" width="0.97" height="15.69" transform="translate(143.95 173.68) rotate(-89.68)"/><rect class="cls-3" x="158.81" y="9.56" width="0.97" height="15.69" transform="translate(140.98 176.6) rotate(-89.68)"/><rect class="cls-3" x="158.31" y="10.92" width="0.97" height="19.96" transform="translate(137 179.58) rotate(-89.68)"/><path class="cls-3" d="M150.95,5.84l2.86,0s-.53,6.62-6.11,9.65C147.71,15.51,151.29,12.66,150.95,5.84Z"/><path class="cls-3" d="M152.58,21.35H155s.27,10.56-5.46,10.82C149.53,32.18,153.15,28.43,152.58,21.35Z"/><path class="cls-3" d="M166.82,21.43h-2.4S164,32,169.75,32.29C169.75,32.29,166.17,28.51,166.82,21.43Z"/><path class="cls-3" d="M159.17,5.89l3.16,0a3.73,3.73,0,0,0-2.17,3.51A3.17,3.17,0,0,1,159.17,5.89Z"/><rect class="cls-3" x="161.3" y="18.58" width="26.27" height="2.06" transform="translate(153.84 193.93) rotate(-89.68)"/><rect class="cls-3" x="179.61" y="18.59" width="26.46" height="2.06" transform="translate(172.13 212.35) rotate(-89.68)"/><rect class="cls-3" x="183.23" y="-3.89" width="0.97" height="20.47" transform="translate(176.34 190.01) rotate(-89.68)"/><rect class="cls-3" x="182.55" y="23.2" width="0.97" height="18.22" transform="translate(149.69 215.16) rotate(-89.68)"/><rect class="cls-3" x="179.24" y="15.62" width="15.75" height="2.06" transform="translate(169.41 203.67) rotate(-89.68)"/><rect class="cls-3" x="182.67" y="5.62" width="1.8" height="12.53" transform="translate(170.65 195.38) rotate(-89.68)"/><path class="cls-3" d="M186,24h2.06a12.87,12.87,0,0,1-.43,3.53,5.22,5.22,0,0,1-1.33,2.28c-.58.47-.55-1.56-.7-2.24a3.08,3.08,0,0,0-.46-1,6.5,6.5,0,0,0-2.74-2.06l.39-.5,2.33,1.17A1.06,1.06,0,0,0,186,24Z"/><path class="cls-3" d="M183.88,21.17c2.17-4.12-2.34-5.59-2.34-5.59h0a5.87,5.87,0,0,0-3.31-.6c3.81,1.64,4.58,6.58,4.58,6.58.15.37.31.47.47.42h0C183.49,21.91,183.7,21.56,183.88,21.17Z"/><path class="cls-3" d="M96,47.61a2,2,0,0,0,.59-.09,1.58,1.58,0,0,0,.52-.27,1.41,1.41,0,0,0,.37-.45,1.31,1.31,0,0,0,.14-.61,1.45,1.45,0,0,0-.19-.75,2.51,2.51,0,0,0-.5-.6,4.66,4.66,0,0,0-.71-.52l-.81-.49q-.41-.25-.81-.51a4.19,4.19,0,0,1-.71-.6,2.75,2.75,0,0,1-.5-.73,2.15,2.15,0,0,1-.19-.93,2.69,2.69,0,0,1,.18-1,2.17,2.17,0,0,1,.51-.78,2.38,2.38,0,0,1,.83-.51,3.13,3.13,0,0,1,1.13-.18,2.76,2.76,0,0,1,1.81.56,3.07,3.07,0,0,1,.95,1.58l-.7.36a3.88,3.88,0,0,0-.31-.77,2.37,2.37,0,0,0-.45-.6,1.87,1.87,0,0,0-.6-.39,2.09,2.09,0,0,0-.77-.14,1.71,1.71,0,0,0-.67.12,1.44,1.44,0,0,0-.48.31,1.31,1.31,0,0,0-.29.44,1.38,1.38,0,0,0-.1.5,1.18,1.18,0,0,0,.19.66,2.7,2.7,0,0,0,.51.57,5.51,5.51,0,0,0,.73.52l.83.51.83.54a4.5,4.5,0,0,1,.73.61,2.91,2.91,0,0,1,.51.72,1.92,1.92,0,0,1,.19.87,2.83,2.83,0,0,1-.19,1,2.31,2.31,0,0,1-.55.83,2.59,2.59,0,0,1-.91.56,3.52,3.52,0,0,1-1.26.2,3.44,3.44,0,0,1-1-.15,2.52,2.52,0,0,1-.81-.43,2.59,2.59,0,0,1-.6-.68,4.07,4.07,0,0,1-.41-.91l.73-.34a3.28,3.28,0,0,0,.34.8,2.47,2.47,0,0,0,.5.6,2,2,0,0,0,.64.38A2.15,2.15,0,0,0,96,47.61Z"/><path class="cls-3" d="M101.18,38.85h1.36l0,5.95a3.38,3.38,0,0,0,.17,1.1,2.75,2.75,0,0,0,.5.91,2.39,2.39,0,0,0,.79.62,2.39,2.39,0,0,0,2.87-.6,2.78,2.78,0,0,0,.5-.9,3.44,3.44,0,0,0,.18-1.1l0-5.95h.6l0,5.95a4.31,4.31,0,0,1-.21,1.32,2.94,2.94,0,0,1-.63,1.09,3,3,0,0,1-1.1.74,4.26,4.26,0,0,1-1.61.26,3.76,3.76,0,0,1-1.48-.28,3.06,3.06,0,0,1-1.07-.75,3.19,3.19,0,0,1-.65-1.11,4,4,0,0,1-.22-1.34Z"/><path class="cls-3" d="M111,38.9h2.55a3.92,3.92,0,0,1,1.18.18,2.84,2.84,0,0,1,1,.52,2.43,2.43,0,0,1,.64.83,2.5,2.5,0,0,1,.23,1.11,2.43,2.43,0,0,1-.23,1.09,2.28,2.28,0,0,1-.61.77,2.49,2.49,0,0,1-.85.45,3.25,3.25,0,0,1-1,.14l-.44,0-.45,0-.4-.05-.29-.06,0,4.24h-1.36Zm1.33,4.41.49.14a2.23,2.23,0,0,0,.54.07,1.86,1.86,0,0,0,.77-.14,1.52,1.52,0,0,0,.55-.41,1.74,1.74,0,0,0,.33-.6,2.48,2.48,0,0,0,.11-.74,2.38,2.38,0,0,0-.14-.84,1.94,1.94,0,0,0-.38-.64,1.71,1.71,0,0,0-.57-.41,1.74,1.74,0,0,0-.71-.15h-1Z"/><path class="cls-3" d="M124.31,39v.59l-4.25,0,0,3.28,2.84,0v.59l-2.84,0,0,4.11,4.25,0v.59l-5.61,0,.05-9.16Z"/><path class="cls-3" d="M126.76,39l2.79,0a4.15,4.15,0,0,1,1.28.18,2.58,2.58,0,0,1,.91.5,2.07,2.07,0,0,1,.55.76,2.43,2.43,0,0,1,.18,1,2.2,2.2,0,0,1-.55,1.47,2.64,2.64,0,0,1-.63.52,3.13,3.13,0,0,1-.81.33l2.91,4.46h-1.57L129,43.86h-.95l0,4.31h-1.36Zm1.33,4.4h.78a2.48,2.48,0,0,0,.84-.13,2,2,0,0,0,.67-.39,1.77,1.77,0,0,0,.45-.61,2,2,0,0,0,.16-.81,2.16,2.16,0,0,0-.12-.75,1.76,1.76,0,0,0-.35-.59,1.58,1.58,0,0,0-.54-.39,1.67,1.67,0,0,0-.68-.14h-1.19Z"/><path class="cls-3" d="M143.24,38.87,147,48.27h-1.38l-1.22-3.07-3.46,0-1.29,3.05H139l3.94-9.35Zm-2.07,5.71,3,0L142.7,41Z"/><path class="cls-3" d="M149,39.12l3.25,0a4,4,0,0,1,1.18.17,2.88,2.88,0,0,1,.92.47,2.11,2.11,0,0,1,.6.71,2,2,0,0,1,.21.92,2.92,2.92,0,0,1-.07.67,1.68,1.68,0,0,1-.24.55,2.14,2.14,0,0,1-.45.48,4.82,4.82,0,0,1-.71.45v0a2.66,2.66,0,0,1,.78.27,2,2,0,0,1,.59.48,2.09,2.09,0,0,1,.38.67,2.52,2.52,0,0,1,.13.84,2.39,2.39,0,0,1-.21,1,2.32,2.32,0,0,1-.57.79,2.66,2.66,0,0,1-.89.52,3.38,3.38,0,0,1-1.17.18l-3.77,0Zm1.31,8.5h1.47a3.65,3.65,0,0,0,1-.12,2.05,2.05,0,0,0,.72-.35,1.4,1.4,0,0,0,.42-.55,1.83,1.83,0,0,0,.14-.71,2.61,2.61,0,0,0-.12-.81,1.58,1.58,0,0,0-.4-.65,1.94,1.94,0,0,0-.72-.43,3.3,3.3,0,0,0-1.09-.16h-1.43Zm0-4.37h1.73a1.89,1.89,0,0,0,.72-.13,1.5,1.5,0,0,0,.54-.36,1.57,1.57,0,0,0,.33-.55,2,2,0,0,0,.12-.69,1.93,1.93,0,0,0-.13-.73,1.4,1.4,0,0,0-.41-.56,2,2,0,0,0-.72-.36,3.82,3.82,0,0,0-1-.13h-1.12Z"/><path class="cls-3" d="M157.87,39.17h1.36l-.05,9.16h-1.36Z"/><path class="cls-3" d="M162.2,39.19h1.36l0,8.57,4.06,0v.59l-5.42,0Z"/><path class="cls-3" d="M169.7,39.23h1.36L171,48.4h-1.36Z"/><path class="cls-3" d="M180.45,39.29v.59l-2.92,0,0,8.57h-1.36l0-8.57-2.93,0v-.59Z"/><path class="cls-3" d="M183,39.31,185.81,44l2.81-4.63h.74l-3.16,5.18,0,4h-1.36l0-3.81-3.2-5.37Z"/><path class="cls-3" d="M199.15,39.85a3,3,0,0,0-1.35.29,3.12,3.12,0,0,0-1.07.84,4,4,0,0,0-.71,1.32,5.69,5.69,0,0,0-.26,1.74,5.24,5.24,0,0,0,.26,1.74,4.07,4.07,0,0,0,.73,1.33,3.25,3.25,0,0,0,1.1.85,3.2,3.2,0,0,0,1.37.3,2.66,2.66,0,0,0,1-.16,2.42,2.42,0,0,0,.77-.46l0-3.22h-1.52v-.55l2.88,0,0,4a6.59,6.59,0,0,1-.71.38,5.16,5.16,0,0,1-.77.28,5.87,5.87,0,0,1-.92.17,10.19,10.19,0,0,1-1.13,0,4.65,4.65,0,0,1-1.27-.18,4.53,4.53,0,0,1-1.12-.49,4.46,4.46,0,0,1-.92-.75,4.58,4.58,0,0,1-.7-1,4.85,4.85,0,0,1-.44-1.13,4.93,4.93,0,0,1-.15-1.25,5.27,5.27,0,0,1,.59-2.4,4.75,4.75,0,0,1,.69-1,4.44,4.44,0,0,1,.91-.77,4.31,4.31,0,0,1,2.37-.67,3.45,3.45,0,0,1,1.18.2,4,4,0,0,1,1,.53,4.22,4.22,0,0,1,.79.76,5.8,5.8,0,0,1,.59.89l-.59.44a4.56,4.56,0,0,0-1.13-1.64A2.19,2.19,0,0,0,199.15,39.85Z"/><path class="cls-3" d="M205.2,39.43l2.79,0a4.14,4.14,0,0,1,1.28.18,2.57,2.57,0,0,1,.91.5,2.07,2.07,0,0,1,.55.76,2.42,2.42,0,0,1,.18,1,2.2,2.2,0,0,1-.55,1.47,2.63,2.63,0,0,1-.63.52,3.12,3.12,0,0,1-.81.33l2.91,4.46h-1.57l-2.78-4.32h-.95l0,4.31h-1.36Zm1.33,4.4h.78a2.49,2.49,0,0,0,.84-.13,2,2,0,0,0,.67-.39,1.76,1.76,0,0,0,.45-.61,2,2,0,0,0,.16-.81,2.15,2.15,0,0,0-.12-.75,1.76,1.76,0,0,0-.35-.59,1.58,1.58,0,0,0-.54-.39,1.67,1.67,0,0,0-.68-.14h-1.19Z"/><path class="cls-3" d="M217.56,48.88a4.1,4.1,0,0,1-1.2-.18,4.23,4.23,0,0,1-1.06-.5,4.53,4.53,0,0,1-.89-.76,4.69,4.69,0,0,1-.68-1,5.25,5.25,0,0,1-.58-2.45,5,5,0,0,1,.16-1.26,5,5,0,0,1,.45-1.13,4.51,4.51,0,0,1,.69-1,4.57,4.57,0,0,1,.9-.73,4.28,4.28,0,0,1,4.53,0,4.57,4.57,0,0,1,1.58,1.71,5,5,0,0,1,.58,2.4,5.27,5.27,0,0,1-.61,2.44,4.7,4.7,0,0,1-.69,1,4.54,4.54,0,0,1-.9.75,4.24,4.24,0,0,1-1.07.48A4.1,4.1,0,0,1,217.56,48.88Zm0-.46a2.28,2.28,0,0,0,1.22-.32,2.76,2.76,0,0,0,.9-.91,4.63,4.63,0,0,0,.56-1.39,7.72,7.72,0,0,0,.2-1.76,7.4,7.4,0,0,0-.18-1.73,4.41,4.41,0,0,0-.54-1.36,2.67,2.67,0,0,0-.89-.89,2.35,2.35,0,0,0-1.22-.32,2.4,2.4,0,0,0-1.24.31,2.64,2.64,0,0,0-.9.88,4.39,4.39,0,0,0-.55,1.35,7.66,7.66,0,0,0-.19,1.73,8,8,0,0,0,.17,1.76,4.58,4.58,0,0,0,.53,1.39,2.71,2.71,0,0,0,.89.92A2.33,2.33,0,0,0,217.56,48.42Z"/><path class="cls-3" d="M224.54,39.54h1.36l0,5.95a3.38,3.38,0,0,0,.17,1.1,2.76,2.76,0,0,0,.5.91,2.4,2.4,0,0,0,.79.62,2.39,2.39,0,0,0,2.87-.6,2.78,2.78,0,0,0,.5-.9,3.43,3.43,0,0,0,.18-1.1l0-5.95h.6l0,5.95a4.31,4.31,0,0,1-.21,1.32,2.94,2.94,0,0,1-.63,1.09,3,3,0,0,1-1.1.74,4.25,4.25,0,0,1-1.61.26,3.75,3.75,0,0,1-1.48-.28,3.05,3.05,0,0,1-1.07-.75,3.19,3.19,0,0,1-.65-1.11,4,4,0,0,1-.22-1.34Z"/><path class="cls-3" d="M234.34,39.6h2.55a3.94,3.94,0,0,1,1.18.18,2.83,2.83,0,0,1,1,.52,2.43,2.43,0,0,1,.64.83,2.5,2.5,0,0,1,.23,1.11,2.43,2.43,0,0,1-.23,1.09,2.28,2.28,0,0,1-.61.77,2.5,2.5,0,0,1-.85.45,3.25,3.25,0,0,1-1,.14l-.44,0-.45,0-.4-.05-.29-.06,0,4.24h-1.36ZM235.67,44l.49.14a2.21,2.21,0,0,0,.54.07,1.85,1.85,0,0,0,.77-.14,1.51,1.51,0,0,0,.55-.41,1.74,1.74,0,0,0,.33-.6,2.48,2.48,0,0,0,.11-.74,2.37,2.37,0,0,0-.14-.84,1.93,1.93,0,0,0-.38-.64,1.71,1.71,0,0,0-.57-.41,1.74,1.74,0,0,0-.71-.15h-1Z"/></g></svg>